<svg xmlns="http://www.w3.org/2000/svg" width="600" height="600" viewBox="0 0 600 600">
  <g id="Group_15390" data-name="Group 15390" transform="translate(-72 -400)">
    <path id="Path_19954" data-name="Path 19954" d="M11019,6813.984a30.04,30.04,0,0,1-30.016,30.016h-539.969a30.039,30.039,0,0,1-30.016-30.015V6274.016a30.042,30.042,0,0,1,30.018-30.017h539.967a30.04,30.04,0,0,1,30.016,30.016Z" transform="translate(-10347 -5844)" fill="#d70000"/>
    <path id="Path_19955" data-name="Path 19955" d="M12828.3,13491H12791l40.209,91.908h31.824l39.616-91.908h-35.85l-19.676,51.1Z" transform="translate(-12573.914 -12651.312)" fill="#fefefe" fill-rule="evenodd"/>
    <path id="Path_19956" data-name="Path 19956" d="M16270.379,13536.953c-1.915-31.691-21.987-42.784-51.9-45.953H16172v91.908h46.482C16248.392,13579.738,16268.464,13568.646,16270.379,13536.953Zm-32.881,0c-.793-13.205-9.178-17.826-21.657-19.146h-9.706v38.295h9.706c12.479-1.32,20.864-5.943,21.659-19.148Z" transform="translate(-15747.424 -12651.312)" fill="#fefefe" fill-rule="evenodd"/>
    <path id="Path_19957" data-name="Path 19957" d="M14527.652,13582.908c27.4,0,49.65-20.6,49.65-45.955s-22.25-45.953-49.65-45.953-49.652,20.6-49.652,45.953S14500.251,13582.908,14527.652,13582.908Zm.4-25.75c10.3,0,18.686-8.782,18.686-19.676s-8.386-19.676-18.686-19.676-18.619,8.781-18.619,19.676,8.314,19.676,18.614,19.676Z" transform="translate(-14157.274 -12651.312)" fill="#fefefe" fill-rule="evenodd"/>
    <path id="Path_19958" data-name="Path 19958" d="M12931.734,7137c-47.539,0-88.739,16.9-119.111,48.925-29.447,31.032-45.623,74.147-45.623,121.487,0,50.18,15.516,92.767,44.9,123.138,29.514,30.438,70.979,46.548,119.838,46.548,35.323,0,65.431-7.725,89.4-22.911,24.165-15.318,42.916-38.691,55.659-69.459a11.911,11.911,0,0,0-1.121-11.026,11.739,11.739,0,0,0-9.707-5.216h-53.349a11.819,11.819,0,0,0-10.433,6.338c-9.243,17.629-35.323,35.522-67.347,35.522-25.419,0-44.83-6.669-57.705-19.808-13.074-13.4-20.336-34.2-21.525-61.933h221.517a11.768,11.768,0,0,0,11.754-11.488c.593-26.344-3.038-51.434-10.829-74.477-7.924-23.439-19.742-43.643-35.061-60.017C13015.124,7152.78,12976.7,7137,12931.734,7137Zm-76.129,135.419c1.189-16.11,10.036-68.6,73.619-68.6,51.236,0,64.375,34.663,70.516,68.6Z" transform="translate(-12558.956 -6678.039)" fill="#fefefe"/>
  </g>
</svg>
